<svg width="24" height="20" viewBox="0 0 24 20" fill="none" xmlns="http://www.w3.org/2000/svg">
<g clip-path="url(#clip0_15424_1360)">
<path d="M21.8638 3.13026H19.8183C17.7161 1.12196 14.9149 0.000488281 12.0008 0.000488281C9.08675 0.000488281 6.28555 1.12196 4.18334 3.13026H2.13792C1.73818 3.12972 1.34633 3.241 1.00709 3.45144C0.667853 3.66187 0.394888 3.96296 0.219343 4.32036C0.0437989 4.67776 -0.0272497 5.07708 0.0142947 5.47273C0.0558391 5.86839 0.208311 6.24444 0.454307 6.558L2.48043 9.14562L2.66858 9.38566L10.3196 19.1792C10.5194 19.4354 10.7754 19.6428 11.068 19.7854C11.3607 19.9281 11.6822 20.0022 12.0081 20.0022C12.3339 20.0022 12.6555 19.9281 12.9481 19.7854C13.2408 19.6428 13.4967 19.4354 13.6965 19.1792L21.3427 9.38566L21.5357 9.14562L23.557 6.558C23.803 6.24444 23.9555 5.86839 23.997 5.47273C24.0386 5.07708 23.9675 4.67776 23.792 4.32036C23.6164 3.96296 23.3435 3.66187 23.0042 3.45144C22.665 3.241 22.2731 3.12972 21.8734 3.13026H21.8638ZM0.791987 4.59449C0.914131 4.34056 1.10658 4.12661 1.34671 3.97778C1.58685 3.82895 1.86468 3.75144 2.14756 3.75436H3.5948C2.74246 4.701 2.05886 5.78556 1.57349 6.96127L0.946362 6.18835C0.771445 5.9676 0.663161 5.70194 0.634122 5.4223C0.605083 5.14267 0.656486 4.86057 0.782344 4.60889L0.791987 4.59449ZM13.19 18.8144C13.0487 18.994 12.8683 19.1393 12.6622 19.2392C12.4562 19.3391 12.23 19.391 12.0008 19.391C11.7716 19.391 11.5455 19.3391 11.3394 19.2392C11.1334 19.1393 10.9529 18.994 10.8117 18.8144L3.16546 9.0256C3.69892 6.88541 5.00363 5.0147 6.83179 3.76876C7.16931 3.5397 7.52051 3.33129 7.88345 3.14466C9.16093 2.50546 10.571 2.17255 12.0008 2.17255C13.4307 2.17255 14.8407 2.50546 16.1182 3.14466C16.4818 3.33021 16.833 3.53867 17.1699 3.76876C18.9992 5.01449 20.3055 6.88504 20.841 9.0256L13.19 18.8144ZM21.3283 8.4015C20.7767 6.58629 19.6974 4.97428 18.2264 3.76876C17.9528 3.5462 17.6677 3.33789 17.3725 3.14466C15.777 2.1016 13.9098 1.54584 12.0008 1.54584C10.0919 1.54584 8.22464 2.1016 6.62917 3.14466C6.3349 3.34149 6.04546 3.54792 5.77531 3.76876C4.30608 4.97494 3.22845 6.58688 2.67822 8.4015L2.23922 7.83981C2.77915 6.29123 3.68593 4.89483 4.88284 3.76876C5.1144 3.55272 5.36526 3.34149 5.60646 3.14466C7.43267 1.72289 9.68459 0.95043 12.0033 0.95043C14.3219 0.95043 16.5738 1.72289 18.4 3.14466C18.6509 3.34149 18.8824 3.55272 19.1188 3.76876C20.3174 4.89349 21.2244 6.29031 21.7624 7.83981L21.3283 8.4015ZM23.0553 6.18835L22.4426 6.97568C21.9573 5.79998 21.2737 4.7154 20.4213 3.76876H21.8686C22.1477 3.77053 22.4208 3.8495 22.6574 3.99686C22.894 4.14421 23.0848 4.35413 23.2084 4.60316C23.332 4.8522 23.3836 5.13054 23.3574 5.40708C23.3312 5.68362 23.2283 5.94747 23.0601 6.16914" fill="#1D1D1B"/>
<path d="M15.3504 8.8623V10.3889H12.9094V15.689H11.0907V10.3889H8.64966V8.8623H15.3504Z" fill="#1D1D1B"/>
<path d="M15.3504 6.56274H8.65448V8.09419H15.3504V6.56274Z" fill="#1D1D1B"/>
</g>
<defs>
<clipPath id="clip0_15424_1360">
<rect width="24" height="20" fill="white"/>
</clipPath>
</defs>
</svg>
