<svg width="12" height="21" viewBox="0 0 12 21" fill="none" xmlns="http://www.w3.org/2000/svg">
<path d="M0.883883 11.3692C0.395728 10.881 0.395728 10.0896 0.883883 9.60141L9.72272 0.762572C10.2109 0.274417 11.0023 0.274417 11.4905 0.762572C11.9786 1.25073 11.9786 2.04218 11.4905 2.53034L2.65165 11.3692C2.16349 11.8573 1.37204 11.8573 0.883883 11.3692Z" fill="black"/>
<path d="M0.883883 9.60141C1.37204 9.11325 2.1635 9.11325 2.65165 9.60141L11.4905 18.4402C11.9786 18.9284 11.9786 19.7199 11.4905 20.208C11.0023 20.6962 10.2109 20.6962 9.72272 20.208L0.883883 11.3692C0.395728 10.881 0.395728 10.0896 0.883883 9.60141Z" fill="black"/>
</svg>
