<svg width="26" height="26" viewBox="0 0 26 26" fill="none" xmlns="http://www.w3.org/2000/svg">
<path fill-rule="evenodd" clip-rule="evenodd" d="M13 26C5.8203 26 0 20.1797 0 13C0 5.8203 5.8203 0 13 0C20.1797 0 26 5.8203 26 13C26 20.1797 20.1797 26 13 26ZM13.0002 23.6362C18.8745 23.6362 23.6366 18.8741 23.6366 12.9998C23.6366 7.12551 18.8745 2.36344 13.0002 2.36344C7.12593 2.36344 2.36387 7.12551 2.36387 12.9998C2.36387 18.8741 7.12593 23.6362 13.0002 23.6362ZM14.1824 16.5052C14.1603 18.4632 15.7295 20.0684 17.6875 20.0906C19.6455 20.1128 21.2507 18.5435 21.2729 16.5855C21.295 14.6275 19.7258 13.0223 17.7678 13.0001C15.8098 12.978 14.2046 14.5473 14.1824 16.5052ZM17.7272 17.7271C18.3799 17.7271 18.909 17.198 18.909 16.5453C18.909 15.8926 18.3799 15.3634 17.7272 15.3634C17.0745 15.3634 16.5454 15.8926 16.5454 16.5453C16.5454 17.198 17.0745 17.7271 17.7272 17.7271ZM4.72689 9.4547C4.72689 11.4128 6.31424 13.0002 8.27234 13.0002C10.2304 13.0002 11.8178 11.4128 11.8178 9.4547C11.8178 7.4966 10.2304 5.90925 8.27234 5.90925C6.31424 5.90925 4.72689 7.4966 4.72689 9.4547ZM8.273 10.6363C8.9257 10.6363 9.45481 10.1072 9.45481 9.45451C9.45481 8.80181 8.9257 8.27269 8.273 8.27269C7.6203 8.27269 7.09118 8.80181 7.09118 9.45451C7.09118 10.1072 7.6203 10.6363 8.273 10.6363ZM10.7761 20.0911L17.867 5.90925H15.2244L8.13346 20.0911H10.7761Z" fill="#C4C5C5"/>
</svg>
