<svg width="28" height="21" viewBox="0 0 28 21" fill="none" xmlns="http://www.w3.org/2000/svg">
<path fill-rule="evenodd" clip-rule="evenodd" d="M25.6859 0H2.31405C1.03604 0 0 1.13964 0 2.54545V17.8182C0 19.224 1.03604 20.3636 2.31405 20.3636H25.6859C26.964 20.3636 28 19.224 28 17.8182V2.54545C28 1.13964 26.964 0 25.6859 0ZM2.54493 17.8181V8.90883H25.454V17.8181H2.54493ZM25.454 6.36338H2.54493V2.54534H25.454V6.36338ZM7 14C7.9665 14 8.75 13.2165 8.75 12.25C8.75 11.2835 7.9665 10.5 7 10.5C6.0335 10.5 5.25 11.2835 5.25 12.25C5.25 13.2165 6.0335 14 7 14Z" fill="black"/>
</svg>
