<svg width="25" height="25" viewBox="0 0 25 25" fill="none" xmlns="http://www.w3.org/2000/svg">
<path fill-rule="evenodd" clip-rule="evenodd" d="M16.8132 0.0968338C18.1408 -0.282477 19.5245 0.486253 19.9038 1.81384C19.9676 2.0372 20 2.26835 20 2.50064V4.59372H22.5C23.8807 4.59372 25 5.71301 25 7.09372V22.0937C25 23.4744 23.8807 24.5937 22.5 24.5937H2.5C1.11929 24.5937 0 23.4744 0 22.0937H0.0334182C0.0112028 21.9592 0 21.823 0 21.6863V6.78636C0 5.67016 0.739943 4.68919 1.8132 4.38255L16.8132 0.0968338ZM10.1742 22.0937H22.5V7.09372H20V9.59351H22.4996V12.0935H20V17.4006C20 18.5168 19.2601 19.4978 18.1868 19.8044L10.1742 22.0937ZM2.50001 6.78661V21.6866L17.5 17.4009V2.5009L2.50001 6.78661ZM15 9.59351C15 10.2839 14.4404 10.8435 13.75 10.8435C13.0597 10.8435 12.5 10.2839 12.5 9.59351C12.5 8.90315 13.0597 8.34351 13.75 8.34351C14.4404 8.34351 15 8.90315 15 9.59351Z" fill="#2B5DA8"/>
</svg>
