<svg width="36" height="30" viewBox="0 0 36 30" fill="none" xmlns="http://www.w3.org/2000/svg">
<path d="M3.19107 4.69555C0.542393 4.69555 -0.949343 7.74259 0.678005 9.83187L15.4047 28.771C16.6803 30.411 19.1552 30.411 20.4308 28.771L35.1532 9.83187C36.7806 7.74259 35.2888 4.69555 32.6401 4.69555H3.19107Z" fill="#FFCE00"/>
<path d="M3.00463 12.8238C4.73369 6.25512 10.7472 1.40274 17.9177 1.40274C25.0883 1.40274 31.1018 6.25936 32.8309 12.8238L33.8903 11.4592C31.6697 4.81424 25.351 0 17.9135 0C10.476 0 4.16157 4.81424 1.94092 11.4592L3.00463 12.8238Z" fill="black"/>
<path d="M15.4005 28.771C16.6761 30.411 19.1511 30.411 20.4267 28.771L32.8267 12.8238C31.0977 6.25508 25.0841 1.4027 17.9136 1.4027C10.7431 1.4027 4.73378 6.25932 3.00049 12.8238L15.4005 28.771Z" fill="#FFEE00"/>
<path d="M22.9142 13.29V15.5869H19.2738V23.5372H16.5573V15.5869H12.917V13.29H22.9142Z" fill="black"/>
<path d="M22.9142 9.8446H12.917V12.1373H22.9142V9.8446Z" fill="black"/>
<path d="M4.48356 14.7267C5.4498 8.23426 11.0947 3.22932 17.9177 3.22932C24.7364 3.22932 30.3855 8.23426 31.3518 14.7267L32.1358 13.7181C30.75 7.19598 24.9102 2.29275 17.9134 2.29275C10.9167 2.29275 5.0811 7.19598 3.69531 13.7181L4.48356 14.7267Z" fill="black"/>
</svg>
