<svg width="24" height="24" viewBox="0 0 24 24" fill="none" xmlns="http://www.w3.org/2000/svg">
<path fill-rule="evenodd" clip-rule="evenodd" d="M10.6337 7.60588C11.2554 6.76812 11.4783 5.88518 10.7752 5.10582C9.19724 2.89807 8.13603 1.53281 7.47039 0.875328C6.20492 -0.374625 4.1232 -0.20555 3.02721 0.87426C2.43854 1.45424 2.23925 1.6534 1.63482 2.26727C-1.73196 5.63552 0.321275 12.7559 5.77953 18.2189C11.2365 23.6808 18.3569 25.7349 21.7308 22.3595C22.2885 21.8219 22.7608 21.3494 23.1332 20.9558C24.2073 19.8207 24.3703 17.831 23.1262 16.5384C22.4883 15.8757 21.1863 14.8658 18.8854 13.2202C18.1807 12.5901 17.3451 12.7266 16.5791 13.2292C16.2106 13.4709 15.9425 13.7154 15.4361 14.2222L14.5166 15.1421C14.3955 15.2633 12.751 14.4398 11.1547 12.8421C9.55752 11.2435 8.73454 9.59907 8.85508 9.47855C9.10365 9.23002 9.41035 8.92318 9.7752 8.55801C9.93585 8.39722 10.0127 8.31937 10.1112 8.21586C10.3164 8.00021 10.4863 7.8045 10.6337 7.60588ZM16.2129 16.8391L17.1326 15.9191C17.4113 15.6401 17.5919 15.4686 17.7388 15.3504C19.7544 16.7977 20.9217 17.7077 21.3985 18.2031C21.6848 18.5005 21.6403 19.0432 21.3914 19.3062C21.0471 19.6702 20.5996 20.1178 20.0505 20.6474C17.8689 22.8297 12.1211 21.1716 7.4762 16.5226C2.82982 11.8721 1.1723 6.12405 3.33748 3.9579C3.93948 3.34656 4.13021 3.15594 4.71047 2.58425C4.92804 2.36989 5.52067 2.32176 5.78533 2.58318C6.29781 3.08938 7.24845 4.30647 8.64689 6.25429C8.5745 6.34416 8.48408 6.44572 8.37404 6.56135C8.29328 6.64622 8.226 6.71442 8.0789 6.86165C7.71433 7.22654 7.40792 7.53309 7.15968 7.78128C5.5959 9.34477 6.92767 12.0058 9.45841 14.5387C11.9874 17.07 14.6497 18.4031 16.2129 16.8391Z" fill="black"/>
</svg>
